<svg width="34" height="17" viewBox="0 0 34 17" fill="none" xmlns="http://www.w3.org/2000/svg">
<path d="M6.21869 9.67334C4.31443 9.67334 2.76392 11.2238 2.76392 13.1281C2.76392 15.0324 4.31443 16.5829 6.21869 16.5829C8.12295 16.5829 9.67346 15.0324 9.67346 13.1282C9.67346 11.2239 8.12295 9.67334 6.21869 9.67334ZM6.21869 15.201C5.07582 15.201 4.14581 14.271 4.14581 13.1282C4.14581 11.9853 5.07582 11.0553 6.21869 11.0553C7.36155 11.0553 8.29156 11.9853 8.29156 13.1282C8.29156 14.271 7.36155 15.201 6.21869 15.201Z" fill="white"/>
<path d="M26.9474 9.67334C25.0432 9.67334 23.4927 11.2238 23.4927 13.1281C23.4927 15.0324 25.0432 16.5829 26.9474 16.5829C28.8517 16.5829 30.4022 15.0324 30.4022 13.1282C30.4022 11.2239 28.8517 9.67334 26.9474 9.67334ZM26.9474 15.201C25.8046 15.201 24.8746 14.271 24.8746 13.1282C24.8746 11.9853 25.8046 11.0553 26.9474 11.0553C28.0903 11.0553 29.0203 11.9853 29.0203 13.1282C29.0203 14.271 28.0903 15.201 26.9474 15.201Z" fill="white"/>
<path d="M29.0203 5.52765H27.8512C27.4242 5.52765 27.0054 5.3812 26.671 5.11307L21.2263 0.757248C20.6155 0.26947 19.8485 0 19.0677 0H9.0792C7.92117 0 6.84742 0.57489 6.20483 1.53807L5.0288 3.30417C4.67641 3.83067 4.08771 4.14575 3.45477 4.14575C1.55051 4.14575 0 5.69626 0 7.60052V10.3644C0 12.2686 1.55051 13.8192 3.45477 13.8192C3.83618 13.8192 4.14575 13.5096 4.14575 13.1282C4.14575 12.7468 3.83618 12.4373 3.45477 12.4373C2.3119 12.4373 1.3819 11.5072 1.3819 10.3644V7.60052C1.3819 6.45766 2.3119 5.52765 3.45477 5.52765C4.55204 5.52765 5.56911 4.98318 6.17853 4.0697L7.35456 2.30498C7.74012 1.72736 8.3855 1.38184 9.0792 1.38184H19.0677C19.5375 1.38184 19.9963 1.5435 20.3639 1.8365L25.8087 6.1909C26.3849 6.65385 27.1118 6.90948 27.8525 6.90948H29.0203C31.0475 6.90948 31.7841 8.97542 31.7841 10.3643C31.7841 11.7254 30.7422 12.4371 29.7112 12.4371C29.3298 12.4371 29.0203 12.7467 29.0203 13.1281C29.0203 13.5095 29.3298 13.8191 29.7112 13.8191C31.6805 13.8192 33.166 12.3336 33.166 10.3644C33.166 8.01924 31.7136 5.52765 29.0203 5.52765Z" fill="white"/>
<path d="M24.1835 12.4373H8.98248C8.60106 12.4373 8.2915 12.7468 8.2915 13.1283C8.2915 13.5096 8.60106 13.8192 8.98248 13.8192H24.1836C24.565 13.8192 24.8746 13.5096 24.8746 13.1283C24.8746 12.7468 24.5649 12.4373 24.1835 12.4373Z" fill="white"/>
<path d="M22.8015 5.52765H16.5829V3.45477C16.5829 3.07336 16.2733 2.76379 15.8919 2.76379C15.5105 2.76379 15.2009 3.07336 15.2009 3.45477V6.21863C15.2009 6.60005 15.5105 6.90961 15.8919 6.90961H22.8015C23.1829 6.90961 23.4925 6.60005 23.4925 6.21863C23.4925 5.83722 23.1829 5.52765 22.8015 5.52765Z" fill="white"/>
<path d="M13.1282 5.52768H8.71849L9.60154 3.76438C9.77152 3.42307 9.63334 3.00849 9.29197 2.8371C8.94924 2.66712 8.53608 2.80393 8.36468 3.14666L6.98278 5.91053C6.87499 6.12331 6.88743 6.37899 7.01317 6.58213C7.1389 6.78528 7.36141 6.90964 7.6005 6.90964H13.1282C13.5096 6.90964 13.8191 6.60009 13.8191 6.21866C13.8191 5.83726 13.5096 5.52768 13.1282 5.52768Z" fill="white"/>
<path d="M18.6559 8.2915H17.274C16.8926 8.2915 16.583 8.60107 16.583 8.98248C16.583 9.36389 16.8926 9.67346 17.274 9.67346H18.6559C19.0373 9.67346 19.3469 9.36389 19.3469 8.98248C19.3469 8.60107 19.0373 8.2915 18.6559 8.2915Z" fill="white"/>
</svg>
