<svg width="33" height="21" viewBox="0 0 33 21" fill="none" xmlns="http://www.w3.org/2000/svg">
<path d="M21.5961 6.90275L19.4522 4.75884C19.1512 4.45614 18.7416 4.28651 18.3148 4.28773H11.6998C11.2729 4.28651 10.8634 4.45614 10.5624 4.75884L8.41854 6.90275C7.7907 7.53078 7.79084 8.54887 8.41887 9.17669C8.72043 9.47817 9.12945 9.64754 9.55588 9.64748H20.4587C21.3468 9.6476 22.0667 8.9278 22.0669 8.03974C22.0669 7.6133 21.8976 7.20429 21.5961 6.90275ZM10.1835 8.57554H9.55588C9.33733 8.57935 9.13915 8.44776 9.05796 8.24483C8.97207 8.04478 9.0183 7.81251 9.17426 7.66062L10.1835 6.65353V8.57554ZM15.5433 8.57554H11.2555V5.58156L11.3203 5.5167C11.4208 5.41573 11.5574 5.35921 11.6998 5.35966H15.5433V8.57554ZM20.9566 8.24483C20.8758 8.44681 20.6789 8.57827 20.4614 8.57554H16.6152V5.35966H18.3148C18.4572 5.35921 18.5939 5.41573 18.6943 5.5167L20.8382 7.66062C20.9949 7.81197 21.042 8.04432 20.9566 8.24483Z" fill="#B7B7B7"/>
<path d="M29.4787 8.57563H27.151C26.7249 8.57442 26.3165 8.40533 26.0142 8.10503L20.8382 2.92912C20.3368 2.42469 19.6543 2.14196 18.943 2.14391H17.6872V0.535973C17.6872 0.239983 17.4473 0 17.1513 0H15.0074C14.7114 0 14.4714 0.239983 14.4714 0.535973V2.14391H11.0717C10.3607 2.14196 9.6784 2.42449 9.177 2.92857L4.00053 8.10503C3.69824 8.40533 3.28983 8.57442 2.86372 8.57563H2.67988C1.20059 8.57736 0.00174192 9.77621 0 11.2555V14.4714C0.00174192 15.9507 1.20059 17.1495 2.67988 17.1513H3.25874C3.55292 19.1996 5.45196 20.6217 7.50039 20.3275C9.14678 20.0911 10.4402 18.7976 10.6767 17.1513H21.482C21.7761 19.1996 23.6752 20.6217 25.7236 20.3275C27.37 20.0911 28.6634 18.7976 28.8999 17.1513H29.4787C30.958 17.1495 32.1569 15.9507 32.1586 14.4714V11.2555C32.1569 9.77615 30.958 8.57736 29.4787 8.57563ZM30.0147 9.7462C30.0276 9.75102 30.041 9.75371 30.0538 9.75852C30.1249 9.78714 30.1939 9.82077 30.2602 9.85929C30.2913 9.87698 30.3245 9.89091 30.3545 9.91289C30.5418 10.0352 30.7017 10.1951 30.824 10.3824C30.8433 10.4124 30.8578 10.4456 30.8776 10.4767C30.9161 10.543 30.9498 10.6119 30.9784 10.6831C30.9832 10.696 30.9859 10.7094 30.9907 10.7222H30.0147V9.7462ZM15.5433 1.07195H16.6153V2.14391H15.5433V1.07195ZM1.1829 10.6804C1.21131 10.6093 1.24481 10.5403 1.28313 10.4741C1.30082 10.443 1.31475 10.4097 1.33673 10.3797C1.45913 10.1925 1.61899 10.0326 1.80624 9.91021C1.83626 9.89091 1.86949 9.87644 1.90057 9.85661C1.96683 9.81829 2.03584 9.7848 2.10692 9.75638C2.11979 9.75156 2.13319 9.74888 2.14605 9.74406V10.7195H1.17057C1.1754 10.7067 1.17808 10.6927 1.1829 10.6804ZM6.9677 19.2952C5.48767 19.2952 4.28781 18.0953 4.28781 16.6153C4.28781 15.1353 5.48767 13.9354 6.9677 13.9354C8.44773 13.9354 9.64758 15.1353 9.64758 16.6153C9.64584 18.0946 8.44699 19.2934 6.9677 19.2952ZM25.1909 19.2952C23.7109 19.2952 22.511 18.0953 22.511 16.6153C22.511 15.1353 23.7109 13.9354 25.1909 13.9354C26.6709 13.9354 27.8708 15.1353 27.8708 16.6153C27.8691 18.0946 26.6702 19.2934 25.1909 19.2952ZM31.0867 13.9354H30.0147V15.0073H30.988C30.7617 15.6475 30.1577 16.0765 29.4787 16.0793H28.9047C28.8988 16.038 28.8886 15.9984 28.8816 15.9576C28.8725 15.904 28.8634 15.8553 28.8527 15.8049C28.8377 15.7373 28.8195 15.6709 28.7991 15.6044C28.7857 15.5567 28.7734 15.509 28.7584 15.4619C28.7359 15.3933 28.7101 15.3263 28.6839 15.2593C28.6673 15.2169 28.6528 15.174 28.6351 15.1328C28.6029 15.0577 28.566 14.9854 28.5279 14.913C28.5118 14.8819 28.4979 14.8498 28.4813 14.8187C28.4259 14.7176 28.3662 14.6193 28.3023 14.5239C28.2862 14.5003 28.268 14.4783 28.2513 14.4548C28.201 14.384 28.15 14.3138 28.0954 14.2463C28.0675 14.2125 28.0375 14.1809 28.0091 14.1482C27.9619 14.0946 27.9147 14.041 27.8644 13.9874C27.8311 13.9531 27.7958 13.9215 27.7609 13.8888C27.7116 13.8421 27.6628 13.796 27.6108 13.7526C27.5733 13.7205 27.5342 13.6905 27.4951 13.6599C27.4415 13.6192 27.3906 13.5795 27.3343 13.5414C27.293 13.5125 27.2507 13.4852 27.2083 13.4578C27.1533 13.4221 27.0974 13.3882 27.0406 13.356C26.9961 13.3308 26.9516 13.3062 26.9066 13.2826C26.8482 13.252 26.7881 13.2236 26.7281 13.1963C26.682 13.1754 26.6364 13.155 26.5893 13.1357C26.526 13.11 26.4622 13.0875 26.3974 13.0655C26.3508 13.0494 26.3041 13.0328 26.2564 13.0189C26.1878 12.9985 26.1181 12.9819 26.0485 12.9653C26.0024 12.9546 25.9574 12.9422 25.9107 12.9331C25.8325 12.9176 25.7499 12.9069 25.6722 12.8967C25.6326 12.8913 25.5934 12.8838 25.5532 12.8801C25.4375 12.8704 25.3147 12.8634 25.1909 12.8634C25.0671 12.8634 24.9444 12.8704 24.8238 12.8822C24.7836 12.8859 24.7444 12.8935 24.7048 12.8988C24.6249 12.909 24.544 12.9197 24.4663 12.9353C24.4196 12.9444 24.3746 12.9567 24.3285 12.9674C24.2583 12.984 24.1886 13.0006 24.1206 13.021C24.0729 13.035 24.0268 13.0516 23.9796 13.0676C23.9148 13.0896 23.851 13.1127 23.7877 13.1379C23.7406 13.1566 23.695 13.1775 23.6489 13.1984C23.5883 13.2258 23.5288 13.252 23.4704 13.2847C23.4249 13.3083 23.3804 13.3324 23.3364 13.3581C23.2796 13.3906 23.2237 13.4246 23.1687 13.46C23.1263 13.4873 23.084 13.5136 23.0427 13.5436C22.9891 13.5816 22.9355 13.6213 22.8819 13.662C22.8428 13.6926 22.8037 13.7226 22.7662 13.7548C22.7126 13.7987 22.6654 13.8448 22.6161 13.8909C22.5812 13.9236 22.5459 13.9558 22.5126 13.9895C22.4623 14.0431 22.4156 14.0967 22.3679 14.1503C22.339 14.183 22.309 14.2146 22.2816 14.2484C22.228 14.3154 22.1744 14.3856 22.1257 14.4569C22.109 14.4805 22.0908 14.5019 22.0747 14.526C22.0108 14.6211 21.9511 14.7193 21.8957 14.8208C21.8791 14.8514 21.8652 14.8841 21.8491 14.9152C21.8121 14.9875 21.7757 15.0599 21.7419 15.1349C21.7242 15.1762 21.7092 15.2191 21.6931 15.2614C21.6669 15.3284 21.6395 15.3954 21.6186 15.464C21.6036 15.5112 21.5913 15.5589 21.5779 15.6066C21.5591 15.673 21.5414 15.739 21.5243 15.807C21.513 15.8574 21.5045 15.9083 21.4953 15.9598C21.4884 16.0005 21.4782 16.0402 21.4723 16.0814H10.6815C10.6756 16.0402 10.6654 16.0005 10.6584 15.9598C10.6493 15.9062 10.6402 15.8574 10.6295 15.807C10.6145 15.7395 10.5963 15.673 10.5759 15.6066C10.5625 15.5589 10.5502 15.5112 10.5352 15.464C10.5126 15.3954 10.4869 15.3284 10.4607 15.2614C10.444 15.2191 10.4296 15.1762 10.4119 15.1349C10.3797 15.0599 10.3427 14.9875 10.3047 14.9152C10.2886 14.8841 10.2747 14.8519 10.2581 14.8208C10.2027 14.7197 10.143 14.6214 10.079 14.526C10.063 14.5025 10.0447 14.4805 10.0281 14.4569C9.97774 14.3861 9.92683 14.3159 9.87216 14.2484C9.84429 14.2146 9.81427 14.183 9.78586 14.1503C9.7387 14.0967 9.69153 14.0431 9.64115 13.9895C9.60792 13.9552 9.57255 13.9236 9.53771 13.8909C9.4884 13.8443 9.43962 13.7982 9.38763 13.7548C9.35012 13.7226 9.31099 13.6926 9.27186 13.662C9.21826 13.6213 9.16735 13.5816 9.11107 13.5436C9.0698 13.5147 9.02746 13.4873 8.98512 13.46C8.93011 13.4243 8.87417 13.3903 8.81736 13.3581C8.77287 13.333 8.72838 13.3083 8.68336 13.2847C8.62494 13.2542 8.56491 13.2258 8.50488 13.1984C8.45879 13.1775 8.41323 13.1572 8.36606 13.1379C8.30282 13.1121 8.23904 13.0896 8.17418 13.0676C8.12755 13.0516 8.08092 13.035 8.03322 13.021C7.96462 13.0006 7.89494 12.984 7.82526 12.9674C7.77917 12.9567 7.73415 12.9444 7.68752 12.9353C7.60926 12.9197 7.52672 12.909 7.44901 12.8988C7.40934 12.8935 7.37022 12.8859 7.33002 12.8822C7.21425 12.8704 7.09151 12.8634 6.9677 12.8634C6.84389 12.8634 6.72115 12.8704 6.60055 12.8822C6.56036 12.8859 6.52123 12.8935 6.48157 12.8988C6.40171 12.909 6.32078 12.9197 6.24306 12.9353C6.19643 12.9444 6.15141 12.9567 6.10531 12.9674C6.0351 12.984 5.96542 13.0006 5.89735 13.021C5.84965 13.035 5.80356 13.0516 5.75639 13.0676C5.69154 13.0896 5.62776 13.1127 5.56451 13.1379C5.51735 13.1566 5.47179 13.1775 5.42569 13.1984C5.36513 13.2258 5.30563 13.252 5.24721 13.2847C5.20165 13.3083 5.15717 13.3324 5.11322 13.3581C5.05641 13.3906 5.00046 13.4246 4.94546 13.46C4.90312 13.4873 4.86077 13.5136 4.8195 13.5436C4.76591 13.5816 4.71231 13.6213 4.65871 13.662C4.61958 13.6926 4.58046 13.7226 4.54294 13.7548C4.48934 13.7987 4.44218 13.8448 4.39287 13.8909C4.35803 13.9236 4.32265 13.9558 4.28942 13.9895C4.23904 14.0431 4.19241 14.0967 4.14471 14.1503C4.11577 14.183 4.08575 14.2146 4.05842 14.2484C4.00482 14.3154 3.95122 14.3856 3.90245 14.4569C3.88583 14.4805 3.86761 14.5019 3.85153 14.526C3.78755 14.6211 3.72792 14.7193 3.67251 14.8208C3.6559 14.8514 3.64196 14.8841 3.62588 14.9152C3.5889 14.9875 3.55245 15.0599 3.51869 15.1349C3.501 15.1762 3.48599 15.2191 3.46991 15.2614C3.44365 15.3284 3.41632 15.3954 3.39541 15.464C3.38041 15.5112 3.36808 15.5589 3.35468 15.6066C3.33592 15.673 3.31823 15.739 3.30108 15.807C3.28983 15.8574 3.28125 15.9083 3.27214 15.9598C3.26517 16.0005 3.25499 16.0402 3.24909 16.0814H2.67988C1.79184 16.0814 1.07195 15.3616 1.07195 14.4735V11.7915H2.67988C2.97588 11.7915 3.21586 11.5515 3.21586 11.2555V9.61327C3.799 9.54105 4.34161 9.27709 4.7584 8.86292L9.93433 3.68698C10.2367 3.38637 10.6453 3.21706 11.0717 3.21586H18.943C19.3691 3.21706 19.7775 3.38617 20.0798 3.68645L25.2558 8.86237C25.7572 9.3668 26.4397 9.64952 27.151 9.64758H28.9427V11.2555C28.9427 11.5515 29.1827 11.7915 29.4787 11.7915H31.0867V13.9354Z" fill="#B7B7B7"/>
<path d="M6.96779 15.0073C6.07974 15.0073 5.35986 15.7272 5.35986 16.6153C5.35986 17.5033 6.07974 18.2232 6.96779 18.2232C7.85583 18.2232 8.57571 17.5033 8.57571 16.6153C8.57571 15.7272 7.85583 15.0073 6.96779 15.0073ZM6.96779 17.1512C6.6718 17.1512 6.43181 16.9113 6.43181 16.6153C6.43181 16.3192 6.6718 16.0793 6.96779 16.0793C7.26378 16.0793 7.50377 16.3192 7.50377 16.6153C7.50377 16.9113 7.26378 17.1512 6.96779 17.1512Z" fill="#B7B7B7"/>
<path d="M25.1909 15.0073C24.3029 15.0073 23.583 15.7272 23.583 16.6153C23.583 17.5033 24.3029 18.2232 25.1909 18.2232C26.0789 18.2232 26.7988 17.5033 26.7988 16.6153C26.7988 15.7272 26.0789 15.0073 25.1909 15.0073ZM25.1909 17.1512C24.8949 17.1512 24.6549 16.9113 24.6549 16.6153C24.6549 16.3192 24.8949 16.0793 25.1909 16.0793C25.4869 16.0793 25.7269 16.3192 25.7269 16.6153C25.7269 16.9113 25.4869 17.1512 25.1909 17.1512Z" fill="#B7B7B7"/>
<rect x="11.511" y="13.6182" width="1.14205" height="1.14205" fill="#B7B7B7"/>
<rect x="12.6531" y="12.4762" width="1.14205" height="1.14205" fill="#B7B7B7"/>
<rect x="13.7952" y="13.6182" width="1.14205" height="1.14205" fill="#B7B7B7"/>
<rect x="14.9373" y="12.4762" width="1.14205" height="1.14205" fill="#B7B7B7"/>
<rect x="16.0793" y="13.6182" width="1.14205" height="1.14205" fill="#B7B7B7"/>
<rect x="17.2214" y="12.4762" width="1.14205" height="1.14205" fill="#B7B7B7"/>
<rect x="18.3633" y="13.6182" width="1.14205" height="1.14205" fill="#B7B7B7"/>
<rect x="19.5056" y="12.4762" width="1.14205" height="1.14205" fill="#B7B7B7"/>
<rect x="11.511" y="11.3341" width="1.14205" height="1.14205" fill="#B7B7B7"/>
<rect x="13.7952" y="11.3341" width="1.14205" height="1.14205" fill="#B7B7B7"/>
<rect x="16.0793" y="11.3341" width="1.14205" height="1.14205" fill="#B7B7B7"/>
<rect x="18.3633" y="11.3341" width="1.14205" height="1.14205" fill="#B7B7B7"/>
</svg>
