<svg xmlns="http://www.w3.org/2000/svg" width="25.806" height="20.072" viewBox="341 760 25.806 20.072"><path d="M362.505 777.204v.717a2.15 2.15 0 0 1-2.15 2.15H343.15a2.15 2.15 0 0 1-2.151-2.15v-11.47a2.15 2.15 0 0 1 2.15-2.15h.717v9.319a3.588 3.588 0 0 0 3.585 3.584h15.053Zm4.301-3.584v-11.47a2.15 2.15 0 0 0-2.15-2.15h-17.204a2.15 2.15 0 0 0-2.151 2.15v11.47a2.15 2.15 0 0 0 2.15 2.15h17.205a2.15 2.15 0 0 0 2.15-2.15Zm-14.337-9.319a2.15 2.15 0 1 1-4.3 0 2.15 2.15 0 0 1 4.3 0Zm-4.3 6.452 2.487-2.488c.21-.21.55-.21.76 0l1.77 1.77 6.072-6.07c.21-.21.55-.21.76 0l3.92 3.92v5.018h-15.77v-2.15Z" fill="#0c9af8" fill-rule="evenodd" data-name="FontAwsome (images)"/></svg>