<svg width="122" height="122" viewBox="0 0 122 122" fill="none" xmlns="http://www.w3.org/2000/svg">
<path d="M60.6504 0C27.2077 0 0 27.2094 0 60.6504C0 94.093 27.2077 121.301 60.6504 121.301C94.093 121.301 121.301 94.093 121.301 60.6504C121.301 27.2094 94.093 0 60.6504 0ZM60.6504 110.274C33.2882 110.274 11.0286 88.0125 11.0286 60.6504C11.0286 33.2899 33.2882 11.0286 60.6504 11.0286C88.0142 11.0286 110.274 33.2899 110.274 60.6504C110.274 88.0125 88.0125 110.274 60.6504 110.274Z" fill="url(#paint0_linear_31_4)"/>
<path d="M83.3937 39.2074L52.2038 70.399L37.9085 56.102C35.7553 53.9505 32.2639 53.9488 30.1106 56.102C27.9574 58.2552 27.9574 61.7467 30.1106 63.8999L48.304 82.095C49.3386 83.1278 50.7403 83.7095 52.2021 83.7095H52.2038C53.6656 83.7095 55.0674 83.1278 56.1019 82.095L91.1917 47.0053C93.3449 44.8521 93.3449 41.3623 91.1917 39.2091C89.0384 37.0559 85.547 37.0542 83.3937 39.2074Z" fill="url(#paint1_linear_31_4)"/>
<defs>
<linearGradient id="paint0_linear_31_4" x1="28.4957" y1="60.6513" x2="92.8066" y2="60.6513" gradientUnits="userSpaceOnUse">
<stop offset="1" stop-color="#23CCFD"/>
<stop stop-color="#068DF7"/>
</linearGradient>
<linearGradient id="paint1_linear_31_4" x1="28.4957" y1="60.6513" x2="92.8066" y2="60.6513" gradientUnits="userSpaceOnUse">
<stop offset="1" stop-color="#23CCFD"/>
<stop stop-color="#068DF7"/>
</linearGradient>
</defs>
</svg>
