<svg width="37" height="18" viewBox="0 0 37 18" fill="none" xmlns="http://www.w3.org/2000/svg">
<path d="M36.6835 6.65269L34.7789 2.45532C34.0932 0.96283 32.6028 0.00456238 30.9602 0H3.65298C1.63626 0.00209045 0.00207901 1.63626 0 3.65298V12.7821C0.00154001 13.8872 0.896901 14.7825 2.00201 14.7841H4.98971C5.28115 16.2198 6.54327 17.2511 8.00805 17.2511C9.47283 17.2511 10.7349 16.2198 11.0264 14.7841H25.9338C26.2253 16.2198 27.4874 17.2511 28.9522 17.2511C30.417 17.2511 31.6791 16.2198 31.9705 14.7841H35.2479C36.1932 14.7832 36.9593 14.0171 36.9602 13.0717V7.92804C36.9605 7.48799 36.866 7.0531 36.6835 6.65269ZM35.348 6.69304L29.5682 6.2094V3.62202L33.7213 3.10289L35.348 6.69304ZM8.00805 16.0161C6.98748 16.0161 6.16004 15.1886 6.16004 14.1681C6.16004 13.1475 6.98748 12.3201 8.00805 12.3201C9.02861 12.3201 9.85606 13.1475 9.85606 14.1681C9.85606 15.1886 9.02861 16.0161 8.00805 16.0161ZM28.9522 16.0161C27.9316 16.0161 27.1042 15.1886 27.1042 14.1681C27.1042 13.1475 27.9316 12.3201 28.9522 12.3201C29.9727 12.3201 30.8002 13.1475 30.8002 14.1681C30.8002 15.1886 29.9727 16.0161 28.9522 16.0161ZM35.2479 13.5521H31.9705C31.6791 12.1164 30.417 11.0851 28.9522 11.0851C27.4874 11.0851 26.2253 12.1164 25.9338 13.5521H11.0264C10.7349 12.1164 9.47283 11.0851 8.00805 11.0851C6.54327 11.0851 5.28115 12.1164 4.98971 13.5521H2.00201C1.57697 13.5515 1.23262 13.2071 1.23201 12.7821V3.65298C1.23355 2.31635 2.31633 1.23355 3.65298 1.23201H30.9602C31.6767 1.23355 32.3681 1.49397 32.9075 1.96506L28.914 2.46402H4.92803C4.58784 2.46402 4.31202 2.73984 4.31202 3.08003V6.77605C4.31202 7.11623 4.58784 7.39204 4.92803 7.39204H28.9263L35.7282 7.95869V13.0717C35.7279 13.3367 35.5128 13.5518 35.2479 13.5521ZM5.54403 6.16005V3.69603H9.85606V6.16005H5.54403ZM11.0881 3.69603H16.0161V6.16005H11.0881V3.69603ZM17.2481 3.69603H21.5601V6.16005H17.2481V3.69603ZM22.7921 3.69603H28.3362V6.16005H22.7921V3.69603Z" fill="#B7B7B7"/>
</svg>
