<svg width="34" height="24" viewBox="0 0 34 24" fill="none" xmlns="http://www.w3.org/2000/svg">
<path d="M25.2073 14.7247C22.8875 14.7247 21.0002 16.612 21.0002 18.9318C21.0002 21.2516 22.8875 23.1389 25.2073 23.1389C27.5275 23.1389 29.4144 21.2516 29.4144 18.9318C29.4144 16.612 27.5271 14.7247 25.2073 14.7247ZM25.2073 21.0353C24.0472 21.0353 23.1038 20.0919 23.1038 18.9318C23.1038 17.7717 24.0472 16.8283 25.2073 16.8283C26.3674 16.8283 27.3108 17.7717 27.3108 18.9318C27.3108 20.0919 26.3674 21.0353 25.2073 21.0353Z" fill="#B7B7B7"/>
<path d="M10.8333 14.7247C8.51346 14.7247 6.62622 16.612 6.62622 18.9318C6.62622 21.2516 8.51346 23.1389 10.8333 23.1389C13.1531 23.1389 15.0404 21.2516 15.0404 18.9318C15.0404 16.612 13.1531 14.7247 10.8333 14.7247ZM10.8333 21.0353C9.67322 21.0353 8.72975 20.0919 8.72975 18.9318C8.72975 17.7717 9.67322 16.8283 10.8333 16.8283C11.993 16.8283 12.9368 17.7717 12.9368 18.9318C12.9368 20.0919 11.9934 21.0353 10.8333 21.0353Z" fill="#B7B7B7"/>
<path d="M28.0403 2.68271C27.8615 2.32756 27.4979 2.10352 27.1003 2.10352H21.561V4.20705H26.4517L29.3157 9.90338L31.1956 8.95816L28.0403 2.68271Z" fill="#B7B7B7"/>
<rect x="14.0938" y="17.915" width="7.95835" height="2.10353" fill="#B7B7B7"/>
<path d="M7.67778 17.915H4.03172C3.45076 17.915 2.97998 18.3859 2.97998 18.9668C2.97998 19.5477 3.45083 20.0185 4.03172 20.0185H7.67784C8.2588 20.0185 8.72958 19.5477 8.72958 18.9668C8.72958 18.3858 8.25873 17.915 7.67778 17.915Z" fill="#B7B7B7"/>
<path d="M33.1551 11.4852L31.0863 8.82077C30.8875 8.56413 30.5807 8.41407 30.2557 8.41407H22.6129V1.05173C22.6129 0.470787 22.142 0 21.5611 0H4.03172C3.45076 0 2.97998 0.470848 2.97998 1.05173C2.97998 1.63262 3.45083 2.10347 4.03172 2.10347H20.5093V9.46581C20.5093 10.0468 20.9802 10.5175 21.5611 10.5175H29.7407L31.2724 12.4906V17.9149H28.3625C27.7815 17.9149 27.3107 18.3858 27.3107 18.9667C27.3107 19.5476 27.7816 20.0184 28.3625 20.0184H32.3241C32.9051 20.0184 33.3758 19.5476 33.3759 18.9667V12.1303C33.3759 11.8968 33.2981 11.6697 33.1551 11.4852Z" fill="#B7B7B7"/>
<path d="M7.60766 12.5862H2.76951C2.18856 12.5862 1.71777 13.057 1.71777 13.6379C1.71777 14.2189 2.18862 14.6897 2.76951 14.6897H7.60759C8.18854 14.6897 8.65933 14.2188 8.65933 13.6379C8.65939 13.057 8.18854 12.5862 7.60766 12.5862Z" fill="#B7B7B7"/>
<path d="M10.0268 8.4491H1.05173C0.470849 8.4491 0 8.91995 0 9.5009C0 10.0818 0.470849 10.5526 1.05173 10.5526H10.0268C10.6078 10.5526 11.0785 10.0818 11.0785 9.5009C11.0785 8.92001 10.6078 8.4491 10.0268 8.4491Z" fill="#B7B7B7"/>
<path d="M11.7446 4.31226H2.76951C2.18856 4.31226 1.71777 4.78311 1.71777 5.36398C1.71777 5.94495 2.18862 6.41574 2.76951 6.41574H11.7446C12.3255 6.41574 12.7963 5.94489 12.7963 5.36398C12.7964 4.78311 12.3255 4.31226 11.7446 4.31226Z" fill="#B7B7B7"/>
</svg>
