<svg width="301" height="202" viewBox="0 0 301 202" fill="none" xmlns="http://www.w3.org/2000/svg">
<path opacity="0.3" d="M289.105 122.623H266.041C264.503 116.037 261.868 109.814 258.306 104.127C253.286 96.0755 246.419 89.0848 238.232 83.636C226.312 75.692 211.593 71 195.671 71C179.743 71 165.018 75.692 153.104 83.636H134.162C131.041 83.636 128.215 84.785 126.172 86.6376C124.122 88.4894 122.86 91.0496 122.86 93.8788C122.86 98.1478 125.745 101.817 129.845 103.353C131.179 103.853 132.632 104.127 134.162 104.127H144.871C148.977 105.663 151.862 109.325 151.862 113.601C151.862 117.508 149.451 120.896 145.909 122.623H120.361C117.239 122.623 114.414 123.766 112.37 125.624C110.326 127.476 109.058 130.037 109.058 132.865C109.058 138.522 114.118 143.108 120.361 143.108H124.152C124.993 150.361 127.148 157.256 130.401 163.598C141.815 185.906 166.752 201.371 195.671 201.371C214.491 201.371 231.628 194.82 244.448 184.083H270.565C276.808 184.083 281.868 179.498 281.868 173.841C281.868 168.184 276.808 163.598 270.565 163.598H260.942H254.187C247.944 163.598 242.877 159.013 242.877 153.356C242.877 150.528 244.146 147.967 246.19 146.109C248.24 144.257 251.065 143.108 254.187 143.108H267.191H289.105C295.348 143.108 300.407 138.522 300.407 132.865C300.407 127.208 295.348 122.623 289.105 122.623Z" fill="#BEDBFF"/>
<path d="M219.711 73.4814H166.964C160.59 73.4814 155.404 78.1809 155.404 83.9569V103.666C156.432 102.907 157.912 102.703 159.18 103.05V83.9569C159.18 80.0677 162.672 76.9032 166.964 76.9032H219.711C224.002 76.9032 227.493 80.0677 227.493 83.9569V187.972C227.493 191.862 224.002 195.026 219.711 195.026H166.964C162.672 195.026 159.18 191.862 159.18 187.972V148.365C158.004 148.811 156.554 148.794 155.404 148.175V187.972C155.404 193.748 160.59 198.448 166.964 198.448H219.711C226.083 198.448 231.268 193.748 231.268 187.972V83.9569C231.268 78.1809 226.083 73.4814 219.711 73.4814Z" fill="white"/>
<path d="M186.864 81.7451H199.811C200.275 81.7451 200.655 82.0887 200.655 82.5095C200.655 82.9304 200.275 83.2747 199.811 83.2747H186.864C186.4 83.2747 186.02 82.9304 186.02 82.5095C186.02 82.0887 186.4 81.7451 186.864 81.7451Z" fill="white"/>
<path d="M173.966 81.2743C174.711 81.2743 175.315 81.8218 175.315 82.4972C175.315 83.172 174.711 83.7202 173.966 83.7202C173.214 83.7202 172.616 83.172 172.616 82.4972C172.616 81.8218 173.221 81.2743 173.966 81.2743Z" fill="white"/>
<path d="M167.842 80.5406C169.037 80.5406 170.007 81.4146 170.007 82.4972C170.007 83.5799 169.037 84.4524 167.842 84.4524C166.654 84.4524 165.685 83.5799 165.685 82.4972C165.685 81.4146 166.654 80.5406 167.842 80.5406Z" fill="white"/>
<path d="M196.711 192.283H189.963C187.819 192.283 186.083 190.718 186.083 188.774C186.083 186.838 187.819 185.265 189.963 185.265H196.711C198.855 185.265 200.59 186.838 200.59 188.774C200.59 190.718 198.855 192.283 196.711 192.283Z" fill="#029DE5"/>
<rect x="164.232" y="89.8826" width="58.602" height="92.6053" fill="white"/>
<path d="M207.821 127.665C207.821 127.347 207.817 127.095 207.821 126.842C207.861 124.043 207.732 121.233 207.975 118.448C208.601 111.268 215.127 105.008 223.002 103.84C233.018 102.355 242.183 108.008 244.243 116.992C244.512 118.162 244.582 119.383 244.611 120.584C244.666 122.907 244.627 125.232 244.627 127.631C244.91 127.644 245.16 127.663 245.408 127.664C246.93 127.667 248.451 127.656 249.972 127.668C252.761 127.69 254.518 129.279 254.519 131.796C254.525 141.878 254.525 151.961 254.519 162.043C254.518 164.559 252.74 166.153 249.966 166.153C234.133 166.154 218.301 166.154 202.468 166.153C199.727 166.153 197.93 164.572 197.927 162.097C197.914 151.972 197.914 141.846 197.927 131.721C197.93 129.279 199.703 127.7 202.413 127.669C203.935 127.652 205.456 127.665 206.978 127.665C207.232 127.665 207.488 127.665 207.821 127.665ZM226.225 163.584C234.049 163.584 241.872 163.584 249.695 163.584C251.32 163.584 251.711 163.23 251.711 161.749C251.711 151.858 251.711 141.967 251.711 132.076C251.71 130.614 251.291 130.232 249.69 130.232C234.044 130.232 218.398 130.232 202.752 130.232C201.174 130.232 200.745 130.611 200.745 132.016C200.745 141.95 200.745 151.884 200.745 161.818C200.746 163.217 201.149 163.583 202.685 163.583C210.532 163.584 218.379 163.584 226.225 163.584ZM241.73 127.639C241.73 124.684 241.736 121.801 241.722 118.918C241.721 118.555 241.633 118.191 241.557 117.831C239.87 109.891 231.996 104.991 223.216 106.415C216.795 107.457 211.413 112.539 210.843 118.403C210.551 121.418 210.718 124.47 210.681 127.505C210.68 127.541 210.726 127.577 210.769 127.639H241.73Z" fill="#029DE5" stroke="#029DE5" stroke-width="3"/>
<path d="M226.225 163.584C218.379 163.584 210.532 163.584 202.685 163.583C201.149 163.583 200.746 163.217 200.745 161.818C200.745 151.884 200.745 141.95 200.745 132.016C200.745 130.611 201.174 130.232 202.752 130.232C218.398 130.232 234.044 130.232 249.69 130.232C251.291 130.232 251.71 130.614 251.711 132.076C251.711 141.967 251.711 151.858 251.711 161.749C251.711 163.229 251.32 163.584 249.695 163.584C241.872 163.584 234.049 163.584 226.225 163.584ZM209.219 149.476C210.792 149.483 212.086 148.317 212.075 146.901C212.063 145.512 210.791 144.361 209.255 144.349C207.697 144.336 206.392 145.52 206.402 146.933C206.414 148.33 207.674 149.468 209.219 149.476ZM246.043 146.924C246.049 145.534 244.796 144.378 243.252 144.349C241.703 144.319 240.374 145.499 240.371 146.91C240.368 148.302 241.628 149.46 243.165 149.476C244.746 149.492 246.036 148.348 246.043 146.924ZM234.711 146.91C234.707 145.509 233.458 144.366 231.913 144.349C230.342 144.333 229.063 145.489 229.066 146.923C229.069 148.36 230.34 149.493 231.927 149.475C233.469 149.458 234.716 148.31 234.711 146.91ZM223.38 146.935C223.388 145.498 222.12 144.341 220.547 144.349C218.999 144.358 217.752 145.49 217.741 146.898C217.73 148.331 218.997 149.483 220.578 149.477C222.128 149.47 223.372 148.342 223.38 146.935Z" fill="white"/>
<path d="M241.73 127.639H210.769C210.726 127.577 210.68 127.541 210.681 127.505C210.718 124.47 210.55 121.418 210.843 118.403C211.413 112.539 216.795 107.457 223.216 106.415C231.996 104.991 239.87 109.891 241.557 117.831C241.633 118.191 241.721 118.555 241.722 118.918C241.736 121.801 241.73 124.684 241.73 127.639Z" fill="white"/>
<path d="M209.219 149.476C207.674 149.468 206.414 148.33 206.402 146.933C206.392 145.52 207.697 144.336 209.255 144.349C210.791 144.361 212.063 145.512 212.075 146.901C212.086 148.317 210.792 149.483 209.219 149.476Z" fill="#029DE5"/>
<path d="M246.043 146.924C246.037 148.348 244.746 149.492 243.165 149.476C241.628 149.46 240.368 148.302 240.371 146.91C240.374 145.499 241.703 144.319 243.252 144.349C244.797 144.378 246.049 145.534 246.043 146.924Z" fill="#029DE5"/>
<path d="M234.711 146.91C234.716 148.31 233.469 149.458 231.927 149.475C230.34 149.493 229.07 148.36 229.066 146.923C229.063 145.489 230.342 144.333 231.913 144.35C233.458 144.366 234.707 145.509 234.711 146.91Z" fill="#029DE5"/>
<path d="M223.38 146.935C223.373 148.342 222.128 149.47 220.578 149.477C218.997 149.483 217.73 148.331 217.741 146.898C217.753 145.49 218.999 144.358 220.547 144.349C222.12 144.341 223.388 145.498 223.38 146.935Z" fill="#029DE5"/>
<path d="M159.211 107.736C159.211 108.688 158.359 109.46 157.308 109.46C156.256 109.46 155.404 108.688 155.404 107.736V97.6818C155.404 96.7292 156.256 95.9565 157.308 95.9565C158.359 95.9565 159.211 96.7292 159.211 97.6818V107.736Z" fill="white"/>
<path d="M159.211 131.346C159.211 132.299 158.359 133.071 157.308 133.071C156.256 133.071 155.404 132.299 155.404 131.346V121.292C155.404 120.34 156.256 119.567 157.308 119.567C158.359 119.567 159.211 120.34 159.211 121.292V131.346Z" fill="white"/>
<path d="M159.211 151.935C159.211 152.887 158.359 153.659 157.308 153.659C156.256 153.659 155.404 152.887 155.404 151.935V141.881C155.404 140.928 156.256 140.156 157.308 140.156C158.359 140.156 159.211 140.928 159.211 141.881V151.935Z" fill="white"/>
</svg>
